<?xml version="1.0" encoding="UTF-8" standalone="no"?>
<!-- Created with Inkscape (http://www.inkscape.org/) -->

<svg
   width="308.16849"
   height="451.68216"
   viewBox="0 0 308.16849 451.68216"
   version="1.1"
   id="svg1"
   xml:space="preserve"
   inkscape:version="1.3 (1:1.3+202307231459+0e150ed6c4)"
   sodipodi:docname="twb.svg"
   xmlns:inkscape="http://www.inkscape.org/namespaces/inkscape"
   xmlns:sodipodi="http://sodipodi.sourceforge.net/DTD/sodipodi-0.dtd"
   xmlns="http://www.w3.org/2000/svg"
   xmlns:svg="http://www.w3.org/2000/svg"><sodipodi:namedview
     id="namedview1"
     pagecolor="#ffffff"
     bordercolor="#000000"
     borderopacity="0.25"
     inkscape:showpageshadow="2"
     inkscape:pageopacity="0.0"
     inkscape:pagecheckerboard="0"
     inkscape:deskcolor="#d1d1d1"
     inkscape:document-units="px"
     inkscape:zoom="0.51145833"
     inkscape:cx="-124.15479"
     inkscape:cy="269.8167"
     inkscape:window-width="1920"
     inkscape:window-height="996"
     inkscape:window-x="0"
     inkscape:window-y="0"
     inkscape:window-maximized="1"
     inkscape:current-layer="layer1" /><defs
     id="defs1" /><g
     inkscape:label="Layer 1"
     inkscape:groupmode="layer"
     id="layer1"
     transform="translate(-1082.737,-270.1056)"><path
       style="fill:#000000;fill-opacity:1"
       d="m 1368.737,719.98258 c -1.925,-1.02149 -6.6276,-5.1641 -10.4502,-9.20581 -3.8226,-4.0417 -10.5726,-11.17355 -15,-15.84855 -4.4274,-4.675 -12.6221,-13.675 -18.2105,-20 -5.5884,-6.325 -10.9884,-12.40466 -12,-13.51036 -1.0116,-1.1057 -3.4959,-4.0307 -5.5207,-6.5 -2.0247,-2.4693 -4.8074,-5.76246 -6.1838,-7.31813 -1.3763,-1.55567 -3.9947,-4.67338 -5.8186,-6.92824 -1.8239,-2.25485 -5.7912,-7.10539 -8.8162,-10.77897 -7.163,-8.69876 -13.3887,-16.4823 -21.5676,-26.9643 -3.6478,-4.675 -8.0498,-10.24087 -9.7824,-12.36859 -1.7325,-2.12772 -3.4832,-4.44253 -3.8904,-5.14402 -1.3434,-2.31423 -8.7511,-5.48739 -12.8103,-5.48739 -5.9661,0 -10.4699,3.47707 -19.4493,15.01571 -4.4,5.65401 -8.4565,10.77599 -9.0144,11.38216 -0.5579,0.60617 -2.5765,3.12713 -4.4856,5.60213 -1.9092,2.475 -3.9277,4.99589 -4.4857,5.60199 -0.5579,0.6061 -2.6518,3.0811 -4.6532,5.5 -12.6488,15.28739 -27.954,32.9903 -34.9266,40.39801 -3.1062,3.3 -8.0309,8.7 -10.9437,12 -7.9864,9.04772 -36.1738,37.81429 -38.9769,39.77766 -1.6091,1.1271 -4.3754,1.72234 -8.0043,1.72234 -9.6234,0 -16.0096,-6.29937 -16.0096,-15.79189 0,-3.97071 4.9129,-14.47007 13.9012,-29.70811 0.9733,-1.65 3.2686,-5.7 5.1007,-9 1.8322,-3.3 5.0562,-8.82043 7.1646,-12.26762 2.1084,-3.44718 3.8335,-6.48898 3.8335,-6.75955 0,-0.68447 23.83,-39.01555 31.0675,-49.97283 3.2696,-4.95 6.2195,-9.7875 6.5552,-10.75 0.3358,-0.9625 0.9556,-1.75 1.3773,-1.75 0.4217,0 1.0284,-0.7875 1.3483,-1.75 0.3199,-0.9625 3.4349,-5.8 6.9222,-10.75 3.4873,-4.95 9.4383,-13.5 13.2244,-19 3.7861,-5.5 9.2024,-13.15 12.0361,-17 6.8843,-9.35319 7.469,-10.6043 7.469,-15.98392 0,-4.01215 -2.0163,-9.98176 -3.8896,-11.51608 -0.3357,-0.275 -1.1559,-1.4 -1.8227,-2.5 -1.1027,-1.81931 -11.6639,-18.40158 -15.2877,-24.0035 -4.6926,-7.2541 -17.1996,-27.72197 -19.5517,-31.9965 -1.5131,-2.75 -3.0297,-5.225 -3.3701,-5.5 -0.3404,-0.275 -1.1622,-1.625 -1.8261,-3 -0.664,-1.375 -2.319,-4.3 -3.6779,-6.5 -2.6554,-4.29904 -3.3575,-5.53557 -8.8009,-15.5 -1.953,-3.575 -4.9406,-8.975 -6.6391,-12 -3.6223,-6.45112 -29.9898,-59.3178 -33.0425,-66.25 -5.4257,-12.32101 -8.0823,-18.32511 -11.5161,-26.02734 -1.4166,-3.17753 -2.5899,-6.32753 -2.6074,-7 -0.018,-0.67246 -0.6925,-2.09617 -1.5,-3.16379 -0.9646,-1.27524 -1.4682,-4.33 -1.4682,-8.90484 0,-6.79576 0.094,-7.05334 3.9067,-10.68008 4.3088,-4.0989 8.6762,-5.3841 14.9092,-4.3874 4.457,0.71271 7.0809,2.91513 17.1841,14.4237 3.575,4.07232 8.7014,9.89846 11.3919,12.94698 6.7644,7.66426 9.3371,10.65965 15.0858,17.56418 2.7377,3.28822 5.2127,6.20359 5.5,6.47859 1.4062,1.34616 18.1717,21.87334 31.4448,38.5 4.8297,6.05 9.5283,11.9 10.4413,13 0.913,1.1 3.8837,4.925 6.6015,8.5 2.7177,3.575 5.203,6.725 5.5227,7 0.3197,0.275 5.7044,7.475 11.966,16 6.2615,8.525 11.6912,15.725 12.0658,16 0.3747,0.275 1.8142,2.3 3.1989,4.5 6.2479,9.92633 14.0257,14.2406 22.0165,12.21232 5.1839,-1.31581 4.982,-1.14547 14.4765,-12.21232 13.9549,-16.26583 21.7563,-25.02622 40.6136,-45.60654 12.9428,-14.12533 16.5554,-16.09025 24.6437,-13.40374 10.4786,3.48041 14.1179,14.08874 8.6343,25.16799 -12.3726,24.99799 -15.9183,32.0469 -20.0411,39.84229 -2.6179,4.95 -5.1058,9.45 -5.5286,10 -0.4228,0.55 -2.2523,3.7 -4.0655,7 -6.5145,11.85631 -7.8894,14.22053 -17.362,29.85296 -10.5561,17.42067 -11.153,19.54058 -7.5885,26.9519 2.1855,4.54398 4.1417,7.90252 5.0645,8.69514 0.6778,0.58212 27.1906,43.77023 28.2389,46 0.3879,0.825 2.0621,3.75 3.7205,6.5 1.6583,2.75 3.4579,5.9 3.9992,7 0.5413,1.1 1.8045,3.35 2.8071,5 2.4625,4.05239 7.8882,13.78792 11.425,20.5 1.5939,3.025 5.9938,11.35 9.7775,18.5 5.9322,11.2101 22.4946,44.17676 34.3436,68.35969 6.4414,13.14649 4.6538,22.01431 -5.4799,27.18416 -4.739,2.41768 -8.3721,2.42064 -12.914,0.0105 z m -131,-372.48414 c -6.2073,-1.6445 -7.8556,-2.44041 -12.8123,-6.18658 -9.2976,-7.02693 -16.1877,-20.3086 -16.1877,-31.20397 0,-12.07512 7.5441,-26.56033 17.0304,-32.69936 11.1633,-7.22434 20.4407,-8.95979 30.8817,-5.77684 19.6463,5.98921 30.9833,24.3166 27.5696,44.56895 -1.4576,8.64718 -4.1947,14.37603 -9.7459,20.39839 -9.4158,10.21488 -23.522,14.40016 -36.7358,10.89941 z"
       id="path2" /><path
       style="fill:#000000"
       id="path1"
       d="" /></g></svg>
